# xmcd
#
# Track frame offsets:
#	150
#	14784
#	37636
#	56513
#	66567
#	84176
#	94511
#	111906
#	131984
#	149154
#
# Disc length: 2253 seconds
#
# Revision: 1
# Processed by: cddbd v1.5.2PL0 Copyright (c) Steve Scherf et al.
# Submitted via: EZCDAudioConverter 7.0.6.1
#
DISCID=8e08cb0a
DTITLE=Praise 5: It's Time To Praise The Lord
DYEAR=1981
DGENRE=
TTITLE0=Maranatha Singers - (Don't You Know) It's Time To Praise The Lord
TTITLE1=Maranatha Singers (Tom Coomes) - As We Gather/The Steadfast Love Of Th
TTITLE1=e Lord
TTITLE2=Maranatha Singers - A Shield About Me
TTITLE3=Maranatha Singers - Jesus I Love You
TTITLE4=Maranatha Singers - Praise Song
TTITLE5=Maranatha Singers (Tom Coomes) - Call On The Lord
TTITLE6=Maranatha Singers - The More I Get To Know You (The More I Fall In Lov
TTITLE6=e)
TTITLE7=Maranatha Singers - I Believe In You
TTITLE8=Maranatha Singers (Michelle Pillar) - In Moments Like These
TTITLE9=Maranatha Singers - Glorify Thy Name
EXTD=
EXTT0=
EXTT1=
EXTT2=
EXTT3=
EXTT4=
EXTT5=
EXTT6=
EXTT7=
EXTT8=
EXTT9=
PLAYORDER=
